# xmcd
#
# Track frame offsets:
#	150
#	8588
#	20747
#	29059
#	39509
#	48375
#	61971
#	69241
#	76818
#	86606
#	101065
#	111719
#	124088
#	135232
#	147847
#	157297
#	170613
#	181456
#	193025
#	202307
#	212651
#	224024
#	231833
#	238999
#	250992
#
# Disc length: 3482 seconds
#
# Revision: 0
# Processed by: cddbd v1.5.2PL0 Copyright (c) Steve Scherf et al.
# Submitted via: EasyCDDAExtractor 2010.3.0.0
#
DISCID=7d0d9819
DTITLE=Gordon Luke - Originals - Picture Show And L&C
DYEAR=1900
DGENRE=
TTITLE0=Picture Show
TTITLE1=Fool That I Am
TTITLE2=Alimony
TTITLE3=All My Love
TTITLE4=Changing Company
TTITLE5=Coming Back
TTITLE6=Crying On One Hand
TTITLE7=Don't Cramp My Style
TTITLE8=Goin' Crazy
TTITLE9=Masterpiece
TTITLE10=Mustache On The Cabbage Head
TTITLE11=My Good Friend Jim
TTITLE12=Oblivion
TTITLE13=Pastures Green
TTITLE14=Christmas In Tennessee
TTITLE15=Don't Say Goodbye If You Love Me
TTITLE16=Going Down The Road Feeling Bad
TTITLE17=I'm Free At Last
TTITLE18=Is It Wrong
TTITLE19=Let This Kiss Bid You Goodbye
TTITLE20=Lonely Heartache
TTITLE21=Race Track Blues
TTITLE22=Dark Years Ahead
TTITLE23=Old Ponchartrain
TTITLE24=When It's Time
EXTD=
EXTT0=
EXTT1=
EXTT2=
EXTT3=
EXTT4=
EXTT5=
EXTT6=
EXTT7=
EXTT8=
EXTT9=
EXTT10=
EXTT11=
EXTT12=
EXTT13=
EXTT14=
EXTT15=
EXTT16=
EXTT17=
EXTT18=
EXTT19=
EXTT20=
EXTT21=
EXTT22=
EXTT23=
EXTT24=
PLAYORDER=
